<?xml version="1.0" standalone="no"?>
<!DOCTYPE svg PUBLIC "-//W3C//DTD SVG 20010904//EN"
 "http://www.w3.org/TR/2001/REC-SVG-20010904/DTD/svg10.dtd">
<svg version="1.0" xmlns="http://www.w3.org/2000/svg"
 width="150.000000pt" height="150.000000pt" viewBox="0 0 150.000000 150.000000"
 preserveAspectRatio="xMidYMid meet">
<metadata>
Created by potrace 1.14, written by Peter Selinger 2001-2017
</metadata>
<g transform="translate(0.000000,150.000000) scale(0.100000,-0.100000)"
fill="#000000" stroke="none">
<path d="M844 981 c3 -5 -4 -11 -16 -14 -12 -4 -19 -9 -15 -13 4 -4 -2 -14
-13 -21 -11 -8 -17 -19 -14 -25 4 -7 2 -8 -5 -4 -6 4 -14 0 -17 -9 -4 -10 -9
-13 -13 -6 -11 18 -68 -42 -64 -67 1 -12 -2 -22 -7 -22 -6 0 -10 8 -10 18 0 9
-11 26 -24 36 -20 14 -25 26 -23 57 1 24 -5 45 -14 55 -15 14 -18 14 -33 -1
-9 -9 -16 -14 -16 -11 0 3 -12 -5 -26 -18 -15 -13 -35 -31 -45 -40 -10 -8 -16
-22 -13 -30 3 -8 -1 -25 -10 -38 -13 -18 -16 -19 -16 -5 0 9 -3 16 -7 16 -23
-4 -24 4 -2 28 13 14 17 22 9 17 -21 -12 -39 -14 -45 -4 -3 5 -13 6 -23 3 -22
-8 -13 1 15 16 19 9 22 9 17 -3 -5 -13 11 -15 36 -6 3 1 8 2 12 1 16 -2 29 39
18 57 -11 16 -11 16 -6 -1 4 -12 2 -17 -6 -14 -7 2 -12 9 -11 15 3 15 -27 3
-47 -17 -8 -9 -24 -21 -35 -28 -11 -6 -19 -16 -17 -23 1 -6 -4 -10 -12 -8 -8
2 -14 -1 -13 -7 1 -5 6 -9 11 -7 5 2 4 -4 -3 -12 -18 -21 -31 -11 -25 19 3 19
1 23 -11 19 -8 -4 -15 -10 -15 -15 0 -5 -4 -9 -8 -9 -4 0 -8 11 -8 24 0 14 3
23 7 20 4 -2 10 3 13 12 5 12 2 15 -11 10 -17 -6 -17 -5 -1 7 15 12 15 14 -1
24 -14 9 -18 8 -19 -3 -1 -8 -3 -21 -4 -29 -2 -19 -3 -19 -19 2 -10 11 -10 14
-1 9 8 -5 12 0 12 15 l0 22 -20 -24 c-11 -13 -24 -29 -30 -36 -5 -7 -21 -36
-34 -66 -17 -40 -21 -58 -13 -66 8 -8 8 -14 -2 -23 -10 -11 -11 -9 -6 7 4 11
-5 2 -19 -20 -14 -22 -24 -46 -21 -52 2 -7 0 -13 -4 -13 -16 0 -21 -31 -9 -53
10 -19 9 -20 -4 -10 -12 11 -17 9 -26 -13 -16 -33 -15 -38 2 -22 8 7 12 16 9
20 -2 4 3 5 12 2 12 -5 9 -11 -15 -29 -20 -15 -26 -25 -18 -27 10 -4 10 -9 -2
-23 -13 -17 -13 -18 0 -10 15 10 20 11 41 14 5 0 7 6 3 12 -4 8 -9 7 -16 -2
-8 -11 -9 -11 -5 1 2 8 12 13 22 12 17 -3 17 -2 4 14 -13 16 -12 17 4 11 10
-4 16 -3 12 2 -3 5 1 12 7 14 10 4 10 6 1 6 -7 1 -12 11 -12 24 1 16 2 18 6 5
2 -10 9 -18 14 -18 6 0 7 5 4 10 -3 6 -2 10 3 10 6 0 7 10 4 23 -5 21 -5 21
12 4 10 -9 22 -14 28 -11 6 4 8 2 5 -3 -4 -6 2 -22 14 -34 11 -13 18 -18 14
-11 -11 21 6 13 26 -12 21 -26 74 -57 83 -48 3 3 -2 10 -10 17 -15 11 -15 12
0 12 8 0 18 -9 21 -19 6 -18 28 -20 53 -5 17 11 53 83 45 91 -4 3 -1 6 6 6 7
0 11 6 8 14 -4 10 0 12 15 8 11 -3 23 -13 25 -23 3 -10 12 -16 22 -14 10 2 18
-3 18 -10 0 -8 -4 -12 -9 -9 -4 3 -8 0 -8 -5 0 -31 104 14 115 49 3 11 14 22
24 25 16 5 28 25 35 57 4 22 12 12 11 -17 0 -18 -3 -37 -8 -41 -4 -4 1 -16 10
-27 10 -11 13 -18 7 -14 -6 3 -17 -6 -24 -21 -7 -15 -17 -35 -22 -45 -11 -21
-1 -60 13 -51 6 3 5 12 -3 22 -11 15 -11 15 3 5 9 -7 19 -10 23 -6 4 4 4 0 0
-10 -4 -12 -2 -16 8 -12 17 7 20 35 4 35 -8 0 -7 3 0 8 6 4 20 27 31 52 40 93
42 95 42 78 1 -9 6 -18 13 -20 9 -3 8 -13 -4 -38 -9 -18 -14 -40 -10 -48 3
-10 1 -13 -6 -8 -11 6 -14 -3 -11 -31 0 -5 8 -7 17 -5 14 3 14 1 -2 -11 -17
-12 -17 -14 -2 -20 9 -4 16 -2 16 3 0 6 5 9 12 8 6 -2 14 5 16 15 2 12 -3 17
-20 18 -23 1 -23 1 2 8 15 4 24 14 24 24 -1 9 2 17 7 17 5 0 9 7 9 15 0 11 10
6 30 -15 29 -29 50 -39 50 -22 0 5 -3 12 -7 16 -14 14 -23 140 -11 157 6 10 8
7 7 -11 -1 -14 0 -27 1 -30 1 -3 4 -18 5 -35 6 -50 24 -145 30 -155 6 -10 36
-2 47 14 11 16 10 38 -2 31 -6 -4 -8 -10 -5 -15 3 -5 1 -11 -4 -14 -13 -8 -8
19 7 37 10 12 10 16 0 20 -11 4 -10 6 0 6 7 1 10 6 6 13 -5 7 -3 8 5 3 8 -4
24 4 41 20 28 27 31 22 16 -23 -6 -18 -2 -30 15 -48 13 -14 29 -22 35 -20 7 3
15 0 17 -7 3 -9 8 -9 18 -1 8 5 30 9 49 8 19 0 43 3 52 7 22 12 20 48 -3 44
-11 -2 -16 1 -13 9 3 8 -10 11 -46 10 -46 -1 -51 1 -48 19 2 11 9 22 17 25 8
3 11 0 8 -5 -3 -5 2 -14 12 -20 15 -10 20 -8 30 13 13 30 22 30 51 -1 l24 -26
28 33 c15 18 26 33 25 33 -1 0 -11 7 -21 15 -11 8 -17 10 -13 3 4 -6 3 -14 -2
-17 -5 -3 -12 1 -15 10 -9 23 -8 24 16 24 12 0 30 7 40 17 17 15 17 17 2 35
-10 10 -12 18 -6 18 16 0 3 35 -19 48 -16 10 -24 10 -42 -3 -28 -20 -43 -19
-22 1 12 12 13 19 4 30 -6 8 -15 12 -19 9 -5 -3 -11 -1 -14 4 -4 5 2 8 11 6
28 -4 36 6 16 21 -17 13 -17 14 1 7 15 -5 17 -3 11 8 -5 8 -4 11 0 6 13 -12
15 -41 3 -48 -7 -5 -7 -8 0 -13 10 -6 36 28 37 47 0 5 35 10 77 10 73 2 88 9
43 20 -11 3 -2 5 20 6 l40 2 -24 17 c-16 11 -47 18 -85 19 -57 1 -60 1 -41
-14 20 -16 16 -16 -32 4 -12 5 -14 3 -8 -8 6 -10 5 -11 -4 -3 -6 6 -24 9 -40
6 -27 -4 -29 -7 -26 -38 2 -19 -1 -36 -5 -39 -5 -3 -7 -20 -5 -38 2 -17 1 -24
-1 -14 -7 21 -18 22 -38 1 -9 -8 -16 -12 -16 -8 0 4 -6 -1 -14 -11 -13 -18
-13 -17 -12 6 1 13 -2 30 -7 37 -7 9 -6 11 6 6 11 -4 20 4 31 24 20 39 17 72
-7 72 -11 0 -15 5 -11 11 4 8 0 8 -15 0 -22 -12 -30 -27 -8 -16 6 4 5 1 -4 -7
-21 -18 -29 -44 -17 -56 7 -7 4 -10 -8 -9 -11 1 -18 -4 -17 -10 2 -7 -1 -13
-5 -13 -5 0 -14 -12 -21 -26 -11 -25 -13 -26 -25 -9 -7 10 -18 15 -24 11 -7
-4 -12 -2 -12 4 0 6 -5 8 -11 4 -6 -3 -3 5 6 20 11 17 13 26 6 26 -7 0 -9 5
-4 13 4 6 9 22 10 34 3 18 -1 21 -29 20 -25 -2 -33 -6 -32 -19 1 -10 -2 -18
-7 -18 -5 0 -9 -5 -9 -10 0 -11 -39 -58 -41 -49 -6 33 -3 51 10 59 10 6 11 10
4 10 -7 0 -13 5 -13 11 0 5 5 7 11 3 8 -4 8 0 0 15 -7 11 -19 21 -27 21 -8 0
-13 -4 -10 -9z m549 -22 c-8 -8 -13 -7 -18 2 -5 8 -4 10 3 5 7 -4 12 -2 12 5
0 7 3 9 7 6 4 -4 2 -12 -4 -18z m-235 -24 c-3 -3 -9 2 -12 12 -6 14 -5 15 5 6
7 -7 10 -15 7 -18z m117 15 c5 -8 11 -7 21 1 8 7 14 7 14 1 0 -18 -31 -22 -46
-7 -9 8 -11 15 -5 15 5 0 13 -5 16 -10z m-669 -15 c-1 -8 -5 -17 -8 -21 -5 -4
-4 16 1 34 3 9 9 -1 7 -13z m371 9 c-3 -3 -12 -4 -19 -1 -8 3 -5 6 6 6 11 1
17 -2 13 -5z m263 2 c0 -3 -4 -8 -10 -11 -5 -3 -10 -1 -10 4 0 6 5 11 10 11 6
0 10 -2 10 -4z m110 -6 c0 -5 -4 -10 -10 -10 -5 0 -10 5 -10 10 0 6 5 10 10
10 6 0 10 -4 10 -10z m35 -8 c-3 -3 -11 0 -18 7 -9 10 -8 11 6 5 10 -3 15 -9
12 -12z m-935 -12 c0 -5 -4 -10 -10 -10 -5 0 -10 5 -10 10 0 6 5 10 10 10 6 0
10 -4 10 -10z m130 4 c0 -8 -19 -13 -24 -6 -3 5 1 9 9 9 8 0 15 -2 15 -3z
m382 -13 c-4 -10 -7 -11 -10 -3 -2 7 -9 9 -14 6 -6 -4 -8 -3 -5 3 10 16 36 11
29 -6z m184 7 c4 -7 4 -10 -1 -6 -4 4 -14 0 -22 -10 -8 -9 -12 -11 -8 -4 3 6
0 12 -7 13 -10 0 3 9 29 18 1 1 5 -5 9 -11z m-216 -38 c0 -5 -5 -10 -11 -10
-5 0 -7 5 -4 10 3 6 8 10 11 10 2 0 4 -4 4 -10z m157 -19 c-1 -12 -6 -17 -15
-14 -10 5 -11 8 -2 13 7 5 9 13 5 20 -5 8 -4 11 3 6 6 -3 10 -15 9 -25z m-36
-44 c-10 -9 -11 -8 -5 6 3 10 9 15 12 12 3 -3 0 -11 -7 -18z m-211 -22 c-9
-11 -10 -15 -10 -46 0 -11 -4 -18 -9 -14 -9 5 -7 38 5 79 5 15 8 16 15 5 4 -7
4 -18 -1 -24z m-446 -16 c-3 -5 0 -9 5 -9 6 0 11 -5 11 -11 0 -5 -6 -7 -12 -3
-10 6 -10 4 -2 -7 6 -8 8 -25 3 -39 -4 -14 -8 -23 -9 -20 -3 10 -9 46 -13 83
-4 30 -2 35 9 26 8 -6 11 -15 8 -20z m142 -27 c-11 -10 -15 4 -8 28 l7 25 3
-23 c2 -13 1 -26 -2 -30z m89 14 c1 -15 -6 -32 -14 -39 -12 -9 -13 -9 -7 1 4
7 2 12 -6 12 -10 0 -10 2 1 9 9 6 10 11 3 15 -14 9 -3 38 12 33 6 -2 11 -16
11 -31z m365 19 c0 -8 -4 -15 -10 -15 -5 0 -7 7 -4 15 4 8 8 15 10 15 2 0 4
-7 4 -15z m-663 -71 c1 -27 7 -52 17 -63 10 -11 14 -25 10 -36 -6 -14 -4 -17
8 -12 9 3 24 -1 35 -9 17 -14 16 -14 -5 -4 -22 11 -23 10 -18 -12 3 -12 3 -17
0 -10 -3 6 -11 9 -16 6 -7 -4 -8 -2 -4 4 3 6 -1 15 -10 20 -23 13 -45 77 -31
91 8 8 8 11 0 11 -12 0 -11 13 2 43 10 24 11 22 12 -29z m1013 41 c0 -2 -10
-9 -22 -15 -22 -11 -22 -10 -4 4 21 17 26 19 26 11z m-348 -32 c-6 -3 -10 -8
-8 -12 3 -4 1 -13 -5 -21 -6 -11 -9 -8 -9 13 0 15 5 27 11 27 5 0 7 6 3 13 -4
7 -2 7 7 -2 11 -10 11 -15 1 -18z m84 -6 c0 -34 -20 -47 -30 -20 -4 9 -1 11 6
7 8 -5 9 -2 5 10 -7 18 -1 36 12 36 4 0 7 -15 7 -33z m-819 -19 c2 -17 0 -19
-7 -8 -5 8 -6 18 -4 22 8 12 10 10 11 -14z m966 2 c3 -11 1 -20 -4 -20 -5 0
-9 9 -9 20 0 11 2 20 4 20 2 0 6 -9 9 -20z m-1093 -45 c0 -2 -9 -3 -19 -2 -11
0 -18 5 -15 9 4 6 34 0 34 -7z m293 -10 c-3 -9 -8 -14 -10 -11 -3 3 -2 9 2 15
9 16 15 13 8 -4z m405 -30 c-3 -3 -9 2 -12 12 -6 14 -5 15 5 6 7 -7 10 -15 7
-18z m-135 -11 c-3 -9 0 -20 8 -25 9 -6 10 -9 2 -9 -6 0 -15 5 -18 10 -7 11 0
40 9 40 3 0 3 -7 -1 -16z m117 -2 c0 -5 -7 -9 -15 -9 -8 0 -12 4 -9 9 3 4 9 8
15 8 5 0 9 -4 9 -8z m265 -2 c-3 -5 -1 -10 4 -10 6 0 11 -5 11 -11 0 -8 -5 -8
-15 1 -13 11 -12 30 1 30 3 0 2 -4 -1 -10z m130 -10 c3 -5 1 -10 -4 -10 -6 0
-11 5 -11 10 0 6 2 10 4 10 3 0 8 -4 11 -10z m-235 -15 c0 -1 -6 -7 -13 -13
-10 -8 -13 -6 -13 7 0 11 6 17 13 14 7 -3 13 -6 13 -8z m169 1 c-2 -2 -15 -9
-29 -15 -24 -11 -24 -11 -6 3 16 13 49 24 35 12z m98 -13 c-14 -14 -19 -15
-29 -4 -11 11 -10 13 4 8 10 -3 20 -2 23 3 4 6 9 10 13 10 3 0 -1 -8 -11 -17z
m-67 -3 c0 -5 -2 -10 -4 -10 -3 0 -8 5 -11 10 -3 6 -1 10 4 10 6 0 11 -4 11
-10z"/>
<path d="M956 978 c3 -5 10 -6 15 -3 13 9 11 12 -6 12 -8 0 -12 -4 -9 -9z"/>
</g>
</svg>
